# xmcd
#
# Track frame offsets:
#	150
#	11770
#	27061
#	48572
#	66696
#	81938
#	99897
#	117134
#
# Disc length: 1750 seconds
#
# Revision: 1
# Processed by: cddbd v1.5.2PL0 Copyright (c) Steve Scherf et al.
# Submitted via: audiograbber 1.83.01
#
DISCID=6206d408
DTITLE=Blue Ridge Mountain - Dance Mix
DYEAR=1900
DGENRE=Country
TTITLE0=Chattahoochee
TTITLE1=Achy Breaky Heart
TTITLE2=One Night at a Time
TTITLE3=Folsom Prison Blues
TTITLE4=Mercury Blues
TTITLE5=God Blessed Texas
TTITLE6=If you're gonna play in Texas
TTITLE7=I like it - I love it
EXTD=
EXTT0=
EXTT1=
EXTT2=
EXTT3=
EXTT4=
EXTT5=
EXTT6=
EXTT7=
PLAYORDER=
